<svg xmlns="http://www.w3.org/2000/svg" width="100%" height="100%" viewBox="0 0 1180 1180" version="1.1" xml:space="preserve" style="fill-rule:evenodd;clip-rule:evenodd;stroke-linejoin:round;stroke-miterlimit:2;"><path d="M1179.167,294.792l0,589.583c0,162.7 -132.092,294.792 -294.792,294.792l-589.583,0c-162.7,0 -294.792,-132.092 -294.792,-294.792l0,-589.583c0,-162.7 132.092,-294.792 294.792,-294.792l589.583,-0c162.7,0 294.792,132.092 294.792,294.792Z" style="fill:#5140f0;"/><g><path d="M1024.73,342.758l0,490.407c0,118.226 -95.984,214.21 -214.21,214.21l-428.42,0c-118.226,0 -214.21,-95.984 -214.21,-214.21l0,-490.407c0,-118.226 95.984,-214.21 214.21,-214.21l428.42,0c118.226,0 214.21,95.984 214.21,214.21Z" style="fill:#fff;"/><path d="M352.456,-11.731c92.484,-1.613 189.01,-0.188 281.79,-0.193l118.503,-0.024c50.333,0 93.025,-2.096 142.725,10.302c129.989,32.428 225.206,150.235 232.739,283.109c2.152,37.953 1.108,77.568 1.087,116.086l-0.032,195.76l0.043,169.769c0.054,51.753 3.131,110.291 -8.06,160.081c-10.739,47.754 -37.996,103.053 -70.203,139.517c-45.333,51.641 -106.874,86.528 -174.579,98.967c-15.603,2.767 -29.733,3.528 -45.476,4.504c-33.546,0.976 -70.375,0.279 -104.122,0.268l-193.191,-0.043l-115.171,0.032c-41.819,0 -87.061,1.469 -127.865,-7.668c-133.862,-29.986 -234.549,-156.42 -237.015,-292.666c-0.666,-36.703 -0.336,-73.641 -0.336,-110.436l0.005,-207.763l0,-163.916c0.002,-51.555 -3.514,-109.861 8.847,-159.572c33.751,-135.72 150.689,-230.509 290.31,-236.114m521.532,275.485c0.917,28.937 1.01,59.096 -20.293,81.921c-28.244,30.262 -81.306,30.965 -111.031,2.372c-24.963,-24.011 -27.711,-51.589 -24.05,-84.369c-76.743,2.468 -154.429,-0.245 -231.265,0.735c-7.986,0.102 -17.29,0.248 -25.232,-0.182c0.376,20.153 1.244,31.817 -4.09,51.155c-12.062,43.728 -58.879,62.886 -100.056,49.511c-44.417,-14.428 -57.799,-60.018 -51.886,-101.52c-29.754,-0.182 -51.505,4.633 -73.799,26.035c-24.078,23.113 -24.08,45.372 -24.27,76.684l0.034,321.47l-0.003,90.824c-0.046,26.119 -1.03,60.401 4.241,85.385c7.259,33.61 24.016,64.46 48.284,88.893c44.445,44.82 80.482,55.272 142.531,55.495l197.765,0.458c28.542,0.001 118.515,2.083 139.127,-4.706c7.778,-5.476 16.53,-10.86 22.079,-18.749c28.731,-40.846 -17.111,-97.2 44.77,-159.587c30.864,-31.118 62.067,-31.387 102.943,-31.551c24.693,-0.1 42.255,-4.472 60.138,-22.438c7.27,-19.663 4.966,-86.565 4.939,-110.242l-0.028,-128.556l-0.03,-112.981c-0.011,-23.073 0.341,-46.396 -0.81,-69.391c-0.578,-11.557 -2.916,-27.088 -8.346,-37.428c-21.068,-40.121 -50.524,-47.852 -91.664,-49.24m-482.735,64.956c40.045,-13.393 31.993,-48.82 32.39,-82.042c0.408,-34.133 6.251,-92.775 -45.664,-88.199c-42.187,11.691 -31.319,53.369 -31.993,86.576c-0.706,34.83 -8.011,90.379 45.267,83.666m405.493,1.549c10.812,-2.113 19.573,-5.892 27.32,-14.134c4.492,-5.301 9.04,-10.076 9.312,-17.332c1.243,-33.043 -0.717,-65.014 0.557,-98.199c0.63,-16.382 -3.804,-28.524 -19.493,-37.495c-5.633,-3.22 -11.994,-4.512 -18.475,-5.431c-18.22,2.914 -36.72,13.303 -36.98,33.801c-0.465,36.735 -1.256,74.369 0.653,111.03c0.745,14.294 23.075,27.619 37.105,27.761" style="fill:#5140f0;fill-rule:nonzero;"/><path d="M462.851,158.515l0,134.742c0,43.733 -35.506,79.239 -79.239,79.239c-43.733,0 -79.239,-35.506 -79.239,-79.239l0,-134.742c0,-43.733 35.506,-79.239 79.239,-79.239c43.733,0 79.239,35.506 79.239,79.239Z" style="fill:#5140f0;"/><path d="M427.595,200.033l0,92.155c0,24.275 -19.708,43.983 -43.983,43.983c-24.275,0 -43.983,-19.708 -43.983,-43.983l0,-92.155c0,-24.275 19.708,-43.983 43.983,-43.983c24.275,0 43.983,19.708 43.983,43.983Z" style="fill:#fff;"/><path d="M873.36,158.515l0,134.742c0,43.733 -35.506,79.239 -79.239,79.239c-43.733,0 -79.239,-35.506 -79.239,-79.239l0,-134.742c0,-43.733 35.506,-79.239 79.239,-79.239c43.733,0 79.239,35.506 79.239,79.239Z" style="fill:#5140f0;"/><path d="M838.104,200.033l0,92.155c0,24.275 -19.708,43.983 -43.983,43.983c-24.275,0 -43.983,-19.708 -43.983,-43.983l0,-92.155c0,-24.275 19.708,-43.983 43.983,-43.983c24.275,0 43.983,19.708 43.983,43.983Z" style="fill:#fff;"/><path d="M470.461,476.212c9.886,-1.574 23.972,0.457 33.742,1.951c55.064,8.424 94.122,54.062 83.04,110.561c-4.627,23.59 -16.335,44.07 -36.685,57.853c46.611,18.558 59.732,72.592 41.601,115.814c-11.488,27.386 -26.524,43.177 -53.939,54.834c-62.762,26.687 -150.157,7.988 -174.443,-62.095c-1.744,-5.017 -5.214,-10.659 -3.026,-15.98c8.624,-10.309 26.077,-12.742 39.356,-16.053c7.977,-2.217 15.455,-3.336 23.637,-4.354c7.986,15.198 17.128,34.764 34.173,41.215c23.049,9.177 59.079,-0.51 67.618,-25.337c15.163,-44.086 -26.251,-58.335 -61.748,-56.329c-3.138,0.177 -16.647,0.267 -16.692,-4.244c-0.164,-16.578 -3.926,-36.535 1.065,-52.403c9.128,-8.8 30.635,-3.879 43.038,-7.661c52.67,-16.058 24.038,-88.389 -27.021,-70.383c-20.199,7.123 -24.596,19.67 -34.144,37.996c-19.329,-4.365 -40.682,-5.907 -59.212,-12.319c-5.423,-4.383 -0.298,-22.156 1.127,-26.047c15.632,-42.697 55.026,-63.732 98.512,-67.021m243.411,5.145c19.211,-0.444 37.271,-0.752 56.439,1.031c2.816,16.438 1.964,39.095 1.927,56.17l-0.099,78.253l0.062,127.279c0.01,24.243 0.721,52.971 -0.8,76.807c-10.924,3.087 -60.044,5.43 -69.132,0.491c-3.474,-5.377 -2.614,-26.784 -2.65,-34.367c0.627,-51.464 -0.412,-103.421 0.085,-154.847c0.189,-19.623 -1.582,-52.834 0.023,-70.735c-9.354,5.566 -50.413,27.393 -59.357,26.36c-5.809,-3.901 -12.192,-59.522 -8.168,-62.867c16.014,-13.316 61.925,-39.515 81.67,-43.575" style="fill:#5140f0;fill-rule:nonzero;"/><path d="M969.928,771.591c2.413,66.129 -160.538,240.765 -229.93,232.325c7.778,-5.476 16.53,-10.86 22.079,-18.749c28.731,-40.846 -17.111,-97.2 44.77,-159.587c30.864,-31.118 62.067,-31.387 102.943,-31.551c24.693,-0.1 42.255,-4.472 60.138,-22.438" style="fill:#9d9bfe;fill-rule:nonzero;"/></g></svg>
