<svg xmlns="http://www.w3.org/2000/svg" xmlns:xlink="http://www.w3.org/1999/xlink" xmlns:serif="http://www.serif.com/" width="100%" height="100%" viewBox="0 0 1180 1180" version="1.1" xml:space="preserve" style="fill-rule:evenodd;clip-rule:evenodd;stroke-linecap:round;"><g><path d="M1179.167,294.792l0,589.583c0,162.7 -132.092,294.792 -294.792,294.792l-589.583,0c-162.7,0 -294.792,-132.092 -294.792,-294.792l0,-589.583c0,-162.7 132.092,-294.792 294.792,-294.792l589.583,0c162.7,0 294.792,132.092 294.792,294.792Z" style="fill:#ebb925;"/><path d="M382.758,518.651l0,141.865c0,32.195 -26.138,58.333 -58.333,58.333l-64.305,0c-32.195,0 -58.333,-26.138 -58.333,-58.333l0,-141.865c0,-32.195 26.138,-58.333 58.333,-58.333l64.305,0c32.195,0 58.333,26.138 58.333,58.333Z" style="fill:#fff;"/><path d="M680.069,518.651l0,141.865c0,32.195 -26.138,58.333 -58.333,58.333l-64.305,0c-32.195,0 -58.333,-26.138 -58.333,-58.333l0,-141.865c0,-32.195 26.138,-58.333 58.333,-58.333l64.305,0c32.195,0 58.333,26.138 58.333,58.333Z" style="fill:#fff;"/><path d="M977.381,518.651l0,141.865c0,32.195 -26.138,58.333 -58.333,58.333l-64.305,0c-32.195,0 -58.333,-26.138 -58.333,-58.333l0,-141.865c0,-32.195 26.138,-58.333 58.333,-58.333l64.305,0c32.195,0 58.333,26.138 58.333,58.333Z" style="fill:#fff;"/><path d="M382.758,589.583l71.096,0" style="fill:none;fill-rule:nonzero;stroke:#fff;stroke-width:28.87px;"/><path d="M501.008,589.583l-78.535,-68.792l0,137.583l78.535,-68.792Z" style="fill:#fff;fill-rule:nonzero;"/><path d="M680.069,589.583l71.096,0" style="fill:none;fill-rule:nonzero;stroke:#fff;stroke-width:28.87px;"/><path d="M798.319,589.583l-78.535,-68.792l0,137.583l78.535,-68.792Z" style="fill:#fff;fill-rule:nonzero;"/></g></svg>
