<svg xmlns="http://www.w3.org/2000/svg" xmlns:xlink="http://www.w3.org/1999/xlink" xmlns:serif="http://www.serif.com/" width="100%" height="100%" viewBox="0 0 1180 1180" version="1.1" xml:space="preserve" style="fill-rule:evenodd;clip-rule:evenodd;stroke-linejoin:round;stroke-miterlimit:2;"><path d="M393.056,22.341l196.528,111.298l0,222.597l-196.528,111.298l-196.528,-111.298l-0,-222.597l196.528,-111.298Z" style="fill:#5140f0;"/><path d="M393.056,688.594l196.528,111.298l0,222.597l-196.528,111.298l-196.528,-111.298l-0,-222.597l196.528,-111.298Z" style="fill:#5140f0;"/><path d="M982.639,354.653l196.528,111.298l0,222.597l-196.528,111.298l-196.528,-111.298l-0,-222.597l196.528,-111.298Z" style="fill:#f59e0b;"/><path d="M786.111,688.594l196.528,111.298l0,222.597l-196.528,111.298l-196.528,-111.298l-0,-222.597l196.528,-111.298Z" style="fill:#d51800;"/><path d="M196.528,355.467l196.528,111.298l0,222.597l-196.528,111.298l-196.528,-111.298l-0,-222.597l196.528,-111.298Z" style="fill:#16a34a;"/><path d="M786.111,22.341l196.528,111.298l0,222.597l-196.528,111.298l-196.528,-111.298l-0,-222.597l196.528,-111.298Z" style="fill:#2563eb;"/></svg>
